<svg id="atv-logo" viewBox="-20 -20 3280 4090" xmlns="http://www.w3.org/2000/svg" aria-label="A-Type VIP">
<defs>
  <linearGradient id="atvGold" x1="0" y1="0" x2="1" y2="1">
    <stop offset="0" stop-color="#8a6b2c"/>
    <stop offset="0.35" stop-color="#d9b56d"/>
    <stop offset="0.55" stop-color="#f0d99b"/>
    <stop offset="0.75" stop-color="#b08d3e"/>
    <stop offset="1" stop-color="#8a6b2c"/>
  </linearGradient>
</defs>
<g class="logo-paths" fill="url(#atvGold)" fill-rule="evenodd">
  <path class="mono" d="M1534,2955 C1536,2954 1538,2950 1539,2946 C1545,2929 1563,2883 1572,2863 C1584,2839 1592,2815 1592,2811 C1591,2803 1568,2805 1560,2814 C1555,2819 1547,2838 1542,2854 C1534,2881 1525,2907 1522,2908 C1517,2911 1516,2910 1490,2834 C1481,2807 1480,2806 1464,2806 C1451,2806 1448,2809 1450,2817 C1455,2830 1465,2858 1476,2884 C1482,2901 1488,2916 1489,2918 C1493,2934 1501,2953 1504,2956 C1509,2960 1529,2960 1534,2955 Z"/>
  <path class="mono" d="M1874,2956 C1876,2953 1877,2953 1877,2935 C1878,2912 1876,2913 1895,2913 C1941,2911 1960,2897 1964,2864 C1966,2836 1951,2814 1924,2808 C1915,2806 1860,2805 1853,2807 C1845,2809 1846,2806 1846,2883 C1845,2956 1845,2956 1851,2958 C1856,2960 1871,2959 1874,2956 Z"/>
  <path class="mono" d="M1723,2957 C1729,2955 1729,2955 1729,2883 C1728,2836 1728,2816 1727,2813 C1724,2805 1708,2806 1704,2815 C1700,2825 1697,2947 1702,2953 C1705,2957 1717,2960 1723,2957 Z"/>
  <path class="mono" d="M1883,2884 C1877,2882 1877,2881 1877,2859 L1877,2839 L1880,2837 C1886,2832 1913,2833 1922,2839 C1938,2849 1935,2875 1918,2882 C1912,2885 1888,2886 1883,2884 Z"/>
  <path class="mono" d="M1969,2657 C1970,2657 1972,2655 1973,2654 C1975,2651 1975,2645 1975,2253 C1975,1885 1976,1855 1977,1853 C1979,1852 1992,1852 2147,1852 C2335,1851 2319,1852 2324,1844 C2329,1836 2361,1765 2370,1743 C2372,1739 2379,1724 2386,1709 C2393,1695 2399,1682 2399,1681 C2401,1675 2409,1676 2270,1675 C2200,1675 1994,1675 1812,1675 C1446,1675 1476,1674 1471,1681 C1467,1685 1456,1707 1446,1732 C1441,1742 1435,1756 1432,1761 C1430,1766 1425,1778 1421,1787 C1417,1796 1410,1812 1404,1822 C1394,1841 1393,1845 1397,1849 C1400,1851 1450,1852 1625,1852 C1756,1852 1764,1852 1766,1853 C1767,1855 1768,1876 1768,2253 C1768,2631 1769,2651 1770,2653 C1771,2655 1773,2656 1775,2657 C1776,2657 1778,2657 1778,2658 C1780,2658 1967,2658 1969,2657 Z"/>
  <path class="mono" d="M1203,2152 C1206,2150 1222,2120 1227,2106 C1229,2102 1233,2091 1237,2082 C1241,2074 1248,2060 1251,2053 C1254,2046 1262,2030 1267,2019 C1272,2008 1278,1995 1280,1990 C1282,1985 1288,1973 1292,1964 C1314,1917 1329,1886 1331,1879 C1333,1875 1336,1868 1338,1865 C1339,1861 1344,1852 1347,1844 C1351,1836 1357,1822 1362,1814 C1370,1796 1373,1789 1384,1763 C1388,1753 1395,1739 1399,1730 C1403,1722 1409,1709 1413,1702 C1416,1695 1422,1681 1426,1672 C1431,1663 1435,1653 1436,1651 C1437,1649 1444,1634 1452,1618 C1459,1602 1467,1585 1470,1580 C1472,1574 1476,1566 1478,1562 C1480,1557 1484,1549 1486,1544 C1488,1539 1496,1523 1502,1509 C1517,1479 1535,1439 1548,1412 C1562,1380 1563,1378 1565,1377 C1569,1375 1572,1380 1577,1394 C1587,1420 1600,1453 1612,1480 C1625,1512 1641,1551 1646,1565 C1649,1574 1652,1581 1667,1616 C1669,1622 1672,1628 1674,1629 L1676,1632 L1773,1632 C1839,1632 1870,1632 1871,1631 C1874,1629 1873,1626 1868,1613 C1865,1607 1859,1591 1854,1579 C1845,1555 1843,1550 1825,1506 C1810,1471 1807,1463 1792,1426 C1785,1410 1778,1391 1775,1384 C1772,1377 1768,1368 1767,1363 C1765,1358 1760,1347 1756,1337 C1752,1327 1745,1310 1740,1298 C1736,1285 1730,1270 1727,1263 C1724,1256 1719,1244 1716,1236 C1689,1168 1690,1169 1682,1167 C1674,1165 1469,1165 1466,1168 C1463,1170 1453,1189 1442,1215 C1437,1226 1429,1244 1424,1254 C1402,1301 1393,1320 1387,1334 C1384,1342 1375,1361 1368,1376 C1355,1404 1346,1424 1338,1440 C1334,1450 1327,1465 1302,1518 C1296,1531 1287,1551 1282,1561 C1278,1572 1270,1589 1265,1599 C1248,1634 1233,1667 1230,1674 C1228,1678 1222,1693 1214,1708 C1188,1764 1184,1773 1177,1788 C1174,1796 1169,1806 1167,1810 C1163,1817 1142,1862 1132,1885 C1129,1893 1123,1905 1120,1912 C1117,1920 1108,1939 1100,1956 C1078,2003 1075,2009 1065,2030 C1060,2042 1054,2054 1052,2059 C1047,2069 1021,2125 1016,2136 C1010,2149 1010,2153 1016,2154 C1024,2156 1200,2154 1203,2152 Z"/>
</g>
</svg>